<svg xmlns="http://www.w3.org/2000/svg" width="512" height="512" viewBox="0 0 512 512" fill="none">
  <rect width="512" height="512" rx="100" fill="#1A73E8"/>
  <path d="M370 180C370 168.954 361.046 160 350 160H162C150.954 160 142 168.954 142 180V332C142 343.046 150.954 352 162 352H350C361.046 352 370 343.046 370 332V180Z" fill="white"/>
  <path d="M330 240H182C176.477 240 172 244.477 172 250C172 255.523 176.477 260 182 260H330C335.523 260 340 255.523 340 250C340 244.477 335.523 240 330 240Z" fill="#34A853"/>
  <path d="M330 200H182C176.477 200 172 204.477 172 210C172 215.523 176.477 220 182 220H330C335.523 220 340 215.523 340 210C340 204.477 335.523 200 330 200Z" fill="#1A73E8"/>
  <path d="M330 280H182C176.477 280 172 284.477 172 290C172 295.523 176.477 300 182 300H330C335.523 300 340 295.523 340 290C340 284.477 335.523 280 330 280Z" fill="#FBBC05"/>
  <path d="M291 320H182C176.477 320 172 324.477 172 330C172 335.523 176.477 340 182 340H291C296.523 340 301 335.523 301 330C301 324.477 296.523 320 291 320Z" fill="#EA4335"/>
</svg>